# xmcd
# Track frame offsets:
# 150
# 14180
# 29452
# 43282
# 60952
# 76785
# 89962
# 103222
# 120265
# 135607
# 152082
# 167905
# 182537
#
# Disc length: 2677 seconds
# Revision: 0
# Processed by: cddbd v1.4PL0 Copyright (c) Steve Scherf et al.
# Submitted via: VisiTrax 2.9.5.181 - For more info visit www.synapsa.com
#
DISCID=ac0a730d
DTITLE=Andre E Adriano - Andre and Adriano
DYEAR=2003
DGENRE=Brasil Country
TTITLE0=Goiano e Mineiro
TTITLE1=Saudade de Voce
TTITLE2=Balanco da Nega
TTITLE3=O amor NAo Pode Acontecer
TTITLE4=Chacoalha a Roseira
TTITLE5=Turum, Tum Tun
TTITLE6=Latinha
TTITLE7=Amei
TTITLE8=Fila do Cinema
TTITLE9=Duvido Muito
TTITLE10=Chuvas de Verao
TTITLE11=E Peia
TTITLE12=Folia de Rei
EXTD=
EXTT0=
EXTT1=
EXTT2=
EXTT3=
EXTT4=
EXTT5=
EXTT6=
EXTT7=
EXTT8=
EXTT9=
EXTT10=
EXTT11=
EXTT12=
PLAYORDER=
